<svg xmlns="http://www.w3.org/2000/svg" viewBox="0 0 135.09 33.34"><defs><style>.cls-1{font-size:23.36px;font-family:BebasKai, Bebas Kai;}.cls-1,.cls-5{fill:#3f3f3f;}.cls-2{letter-spacing:-0.03em;}.cls-3{letter-spacing:-0.03em;}.cls-4{letter-spacing:-0.02em;}</style></defs><g id="Warstwa_2" data-name="Warstwa 2"><g id="Warstwa_1-2" data-name="Warstwa 1"><text class="cls-1" transform="translate(29.7 28.58)">Cre<tspan class="cls-2" x="28.34" y="0">a</tspan><tspan x="37.22" y="0">te </tspan><tspan class="cls-3" x="58.94" y="0">p</tspan><tspan x="67.71" y="0">ape</tspan><tspan class="cls-4" x="95.97" y="0">r</tspan></text><polygon class="cls-5" points="20.39 19.86 21.42 19.86 21.42 0 0 0 0 29.07 13.06 29.07 21.42 20.27 21.42 19.86 20.39 19.86 19.64 19.15 12.18 27.01 2.06 27.01 2.06 2.06 19.36 2.06 19.36 19.86 20.39 19.86 19.64 19.15 20.39 19.86"/><polygon class="cls-5" points="13.65 28.04 13.65 20.46 20.39 20.46 20.39 18.4 11.59 18.4 11.59 28.04 13.65 28.04 13.65 28.04"/></g></g></svg>