<svg xmlns="http://www.w3.org/2000/svg" viewBox="0 0 131.78 42.37"><defs><style>.cls-1{fill:#4a4939;}</style></defs><g id="Warstwa_2" data-name="Warstwa 2"><g id="Warstwa_1-2" data-name="Warstwa 1"><path class="cls-1" d="M50.68,15.54v3.4H42.87v4.82h6.5v3.4h-6.5v7.41H38.43v-19Z"/><path class="cls-1" d="M57.1,17.32a2.16,2.16,0,0,1-.2.91,2.45,2.45,0,0,1-.53.74,2.62,2.62,0,0,1-.79.51,2.38,2.38,0,0,1-1,.19,2.24,2.24,0,0,1-.93-.19,2.48,2.48,0,0,1-.76-.51,2.45,2.45,0,0,1-.53-.74,2.31,2.31,0,0,1-.18-.91,2.41,2.41,0,0,1,.18-.93,2.49,2.49,0,0,1,.53-.75,2.31,2.31,0,0,1,.76-.51,2.41,2.41,0,0,1,.93-.19,2.57,2.57,0,0,1,1,.19,2.44,2.44,0,0,1,.79.51,2.49,2.49,0,0,1,.53.75A2.25,2.25,0,0,1,57.1,17.32ZM56.63,21V34.57H52.58V21Z"/><path class="cls-1" d="M59.37,34.57V21h2.4a2.27,2.27,0,0,1,.5,0,1,1,0,0,1,.34.16.63.63,0,0,1,.21.3A2.94,2.94,0,0,1,63,22l.22,1.27a6.72,6.72,0,0,1,1.67-1.82,3.41,3.41,0,0,1,2-.66,2.36,2.36,0,0,1,1.49.44l-.52,3a.53.53,0,0,1-.21.38.66.66,0,0,1-.42.11,3.75,3.75,0,0,1-.52-.05,4,4,0,0,0-.76-.06,2.77,2.77,0,0,0-2.5,1.69v8.31Z"/><path class="cls-1" d="M69.63,34.57V21h2.51a1.06,1.06,0,0,1,.63.17.89.89,0,0,1,.36.51l.22.73a7.19,7.19,0,0,1,.71-.65,4.44,4.44,0,0,1,1.7-.85,4.58,4.58,0,0,1,1.08-.12,3.19,3.19,0,0,1,2,.63,4,4,0,0,1,1.22,1.69,4.2,4.2,0,0,1,.83-1.07A4.72,4.72,0,0,1,82,21.35a5.13,5.13,0,0,1,1.2-.4,6,6,0,0,1,1.26-.13,5.53,5.53,0,0,1,2.06.35,4,4,0,0,1,1.51,1,4.43,4.43,0,0,1,.92,1.62A6.93,6.93,0,0,1,89.24,26v8.61h-4V26q0-2.1-1.8-2.1A1.84,1.84,0,0,0,82,24.4,2.11,2.11,0,0,0,81.49,26v8.61h-4V26A2.29,2.29,0,0,0,77,24.33a1.79,1.79,0,0,0-1.34-.47,2.22,2.22,0,0,0-1,.25,3.6,3.6,0,0,0-.92.67v9.79Z"/><path class="cls-1" d="M91.59,34.57V15h4v7.44a6.23,6.23,0,0,1,1.72-1.19,5.22,5.22,0,0,1,2.25-.45,4.22,4.22,0,0,1,2,.46,4.45,4.45,0,0,1,1.55,1.33,6.72,6.72,0,0,1,1,2.17,10.31,10.31,0,0,1,.38,2.91,9.16,9.16,0,0,1-.43,2.82,7,7,0,0,1-1.19,2.24,5.44,5.44,0,0,1-1.82,1.49,5.15,5.15,0,0,1-2.36.54,4.46,4.46,0,0,1-1.08-.12,3.74,3.74,0,0,1-.87-.33,3.85,3.85,0,0,1-.73-.52,8,8,0,0,1-.65-.65l-.14.68a.87.87,0,0,1-.34.57,1.17,1.17,0,0,1-.63.16ZM98.2,23.86a3.35,3.35,0,0,0-.81.09,2.36,2.36,0,0,0-.66.24,2,2,0,0,0-.57.4,5.56,5.56,0,0,0-.52.55v5.75a2.64,2.64,0,0,0,1,.71,3.26,3.26,0,0,0,1.12.2,2.32,2.32,0,0,0,1-.22,2.13,2.13,0,0,0,.82-.71,3.89,3.89,0,0,0,.54-1.28,7.91,7.91,0,0,0,.2-1.9,8.43,8.43,0,0,0-.16-1.81,3.6,3.6,0,0,0-.44-1.18,1.64,1.64,0,0,0-.67-.64A1.92,1.92,0,0,0,98.2,23.86Z"/><path class="cls-1" d="M112,20.82a6.9,6.9,0,0,1,2.46.42,5.27,5.27,0,0,1,3.17,3.16,7.2,7.2,0,0,1,.45,2.62,5,5,0,0,1,0,.74,1,1,0,0,1-.14.46.6.6,0,0,1-.28.24,1.44,1.44,0,0,1-.45.06h-7.81a3.85,3.85,0,0,0,1,2.46,3.09,3.09,0,0,0,2.16.77,3.92,3.92,0,0,0,1.21-.17,7.13,7.13,0,0,0,.91-.38l.73-.38a1.57,1.57,0,0,1,.7-.17.84.84,0,0,1,.73.35L118,32.45a5.92,5.92,0,0,1-1.36,1.17,6.92,6.92,0,0,1-1.48.71,8.44,8.44,0,0,1-1.53.35,12.65,12.65,0,0,1-1.46.1,7.57,7.57,0,0,1-2.67-.47,6.25,6.25,0,0,1-2.18-1.37,6.5,6.5,0,0,1-1.47-2.28,8.5,8.5,0,0,1-.54-3.16,7.14,7.14,0,0,1,.46-2.57,6.34,6.34,0,0,1,1.33-2.13,6.41,6.41,0,0,1,2.1-1.45A7.08,7.08,0,0,1,112,20.82Zm.08,2.79a2.45,2.45,0,0,0-1.82.66,3.5,3.5,0,0,0-.86,1.9h5a3.73,3.73,0,0,0-.12-.94,2.36,2.36,0,0,0-.4-.81,2,2,0,0,0-.74-.58A2.53,2.53,0,0,0,112.09,23.61Z"/><path class="cls-1" d="M125.69,20.82a6.9,6.9,0,0,1,2.46.42,5.28,5.28,0,0,1,1.92,1.21,5.47,5.47,0,0,1,1.26,1.95,7.2,7.2,0,0,1,.45,2.62,6.83,6.83,0,0,1,0,.74,1.18,1.18,0,0,1-.15.46.6.6,0,0,1-.28.24,1.36,1.36,0,0,1-.45.06h-7.81a3.86,3.86,0,0,0,1,2.46,3,3,0,0,0,2.15.77,3.88,3.88,0,0,0,1.21-.17,6.57,6.57,0,0,0,.91-.38l.73-.38a1.6,1.6,0,0,1,.7-.17.84.84,0,0,1,.73.35l1.18,1.45a6.1,6.1,0,0,1-1.35,1.17,7.23,7.23,0,0,1-1.49.71,8.44,8.44,0,0,1-1.53.35,12.5,12.5,0,0,1-1.46.1,7.65,7.65,0,0,1-2.67-.47A6.34,6.34,0,0,1,121,32.94a6.5,6.5,0,0,1-1.47-2.28A8.5,8.5,0,0,1,119,27.5a7.14,7.14,0,0,1,.46-2.57,6.34,6.34,0,0,1,1.33-2.13,6.41,6.41,0,0,1,2.1-1.45A7.12,7.12,0,0,1,125.69,20.82Zm.08,2.79a2.43,2.43,0,0,0-1.81.66,3.44,3.44,0,0,0-.87,1.9h5.06a3.33,3.33,0,0,0-.13-.94,2.36,2.36,0,0,0-.4-.81,2,2,0,0,0-.74-.58A2.46,2.46,0,0,0,125.77,23.61Z"/><path class="cls-1" d="M29.22,25.11c-.12-6.82-3.81-11.21-8.53-13.18V10.06A1.84,1.84,0,0,0,20,8.61a4.26,4.26,0,0,0,.35-2.43,1.63,1.63,0,0,0-1.41-1.61C16.93,1.48,14.1-.69,11.67.2A7.75,7.75,0,0,0,7.14,4.57,1.63,1.63,0,0,0,5.76,6.18a5.24,5.24,0,0,0,.16,2H4.76a1.84,1.84,0,0,0-1.84,1.84v2.38a1.83,1.83,0,0,0,1.79,1.83A14.18,14.18,0,0,0,0,25.11C.18,35.64,8.84,40.38,16.69,39.37l3.29,3,0-3.77C25,36.79,29.09,32.3,29.22,25.11ZM4.42,12.44V10.06a.34.34,0,0,1,.34-.34H9.28a.34.34,0,0,1,.34.34v2.38a.35.35,0,0,1-.34.34H4.76A.35.35,0,0,1,4.42,12.44ZM17.73,35.86A2.29,2.29,0,0,1,15.63,37a3,3,0,0,1-.46,0,10.07,10.07,0,0,1-6-3.66,12.65,12.65,0,0,0,5.37,1.3,9.75,9.75,0,0,0,3.65-.7A4.09,4.09,0,0,1,17.73,35.86Zm.5-3.87-.57.24c-4.45,1.82-8.89-1-10.08-1.9A11.43,11.43,0,0,1,7,28.1a13.12,13.12,0,0,0,6.92,2.37h.13a10.66,10.66,0,0,0,1.25-.09,9.17,9.17,0,0,0,1.22-.26,9.36,9.36,0,0,0,1.71-.63V32Zm-6.79-7.85A8.43,8.43,0,0,1,7.63,22a12.1,12.1,0,0,1,.9-1.8A7.92,7.92,0,0,0,12,21.44c.27,0,.54,0,.82.06h.19a8.11,8.11,0,0,0,.86-.05,7.69,7.69,0,0,0,4.32-1.82v3.51a10.37,10.37,0,0,1-5.12,1.23q-.48,0-.93-.09C11.93,24.25,11.68,24.2,11.44,24.14ZM9.12,5.76h1.1V8H9.12V5.76Zm10.07,4.3v2.38a.36.36,0,0,1-.09.23.34.34,0,0,1-.25.11H14.33a.35.35,0,0,1-.34-.34V10.06a.34.34,0,0,1,.34-.34h4.58l.17.11a1.62,1.62,0,0,1,.1.18S19.19,10,19.19,10.06ZM11.44,7.6V5.76h1.08V8.05H11.44Zm3.35-1.72V8.05H13.73V5.76h1.06Zm2.37.9V8.05H16V5.76h1.15Zm-6,5.66v-.7a1.69,1.69,0,0,1,1.37,0v.71a1.83,1.83,0,0,0,1.32,1.75,1.77,1.77,0,0,0,.52.09h4.52a1.27,1.27,0,0,0,.28,0c0,.14,0,.27-.05.41a6.57,6.57,0,0,1-.77,2.23h-.08V17a6,6,0,0,1-.72.94,5.78,5.78,0,0,1-3.36,1.75,7.59,7.59,0,0,1-1.1.11H13a6.35,6.35,0,0,1-3.39-1,4.82,4.82,0,0,1-.66-.51,6.65,6.65,0,0,1-.58-.61A6.42,6.42,0,0,1,7,14.28H9.28A1.84,1.84,0,0,0,11.12,12.44Zm1.55-3.17a1.87,1.87,0,0,0-.18.79v.14a3,3,0,0,0-1.37,0v-.16a1.87,1.87,0,0,0-.18-.79ZM7.1,23.76a10.46,10.46,0,0,0,4.43,2.14l.79.13a7.38,7.38,0,0,0,1,.06l.24,0a11.84,11.84,0,0,0,4.71-1.06v2.48a8,8,0,0,1-3.62,1.21,8.43,8.43,0,0,1-1.12,0,8.69,8.69,0,0,1-1-.13,12.46,12.46,0,0,1-5.59-2.75A12.63,12.63,0,0,1,7.1,23.76ZM19.93,30.6v-12C26.76,19.51,26.76,29.69,19.93,30.6ZM18.73,8h-.35V5.76h.31c.23,0,.37.2.42.42S19.4,8,18.73,8ZM7.4,5.76h.5V8.05H7.36A.45.45,0,0,1,7,7.63C6.94,7.41,6.68,5.72,7.4,5.76Zm9.93-1.33H8.55C10.6.79,14.34-.17,17.33,4.43Z"/><path class="cls-1" d="M16.24,16l-.86-.4-.46-.22a2.34,2.34,0,0,1-.23.37,2.18,2.18,0,0,1-2.31.88l-.3-.06-.09.27-.36,1.12a4.22,4.22,0,0,0,1.29.21A3.76,3.76,0,0,0,16.24,16Z"/><path class="cls-1" d="M17,10.8a.26.26,0,0,1-.05.09.53.53,0,0,1-.94-.12.59.59,0,0,1,0-.14.48.48,0,0,1,.49-.51,1.3,1.3,0,0,0-1.83.59,1.29,1.29,0,0,0-.07.45,1.24,1.24,0,0,0,2.47,0,1.86,1.86,0,0,0,0-.26S17,10.83,17,10.8Z"/><path class="cls-1" d="M7.05,12.35a1.19,1.19,0,0,0,1.41-1.19,1.45,1.45,0,0,0-.07-.44.53.53,0,0,1-.92.23.46.46,0,0,1-.12-.32.5.5,0,0,1,.53-.51,1.38,1.38,0,0,0-1-.13A1.12,1.12,0,0,0,6,11.16a1.07,1.07,0,0,0,.21.71A1.18,1.18,0,0,0,7.05,12.35Z"/></g></g></svg>