<svg xmlns="http://www.w3.org/2000/svg" viewBox="0 0 146.25 44.56"><defs><style>.cls-1{font-size:23.36px;font-family:Lato-Bold, Lato;font-weight:700;letter-spacing:-0.04em;}.cls-1,.cls-6{fill:#3f3f3f;}.cls-2{letter-spacing:-0.02em;}.cls-3{letter-spacing:-0.03em;}.cls-4{letter-spacing:-0.03em;}.cls-5{letter-spacing:-0.02em;}</style></defs><g id="Warstwa_2" data-name="Warstwa 2"><g id="Warstwa_1-2" data-name="Warstwa 1"><text class="cls-1" transform="translate(0 37.91)">P<tspan class="cls-2" x="13.45" y="0">oi</tspan><tspan class="cls-3" x="31.87" y="0">n</tspan><tspan class="cls-2" x="44.41" y="0">t </tspan><tspan class="cls-4" x="57.85" y="0">D</tspan><tspan class="cls-5" x="75" y="0">esign</tspan></text><path class="cls-6" d="M146.25,10.31a10.31,10.31,0,0,0-20.62-.1,5.42,5.42,0,0,0,0,.55,14.09,14.09,0,0,0,1.51,5.78,39,39,0,0,0,8.16,11l1.6,1.6V20.57A10.3,10.3,0,0,0,146.25,10.31Zm-10.31,8.44H135v5.81a34.49,34.49,0,0,1-6.18-8.8,12.49,12.49,0,0,1-1.34-5,1.86,1.86,0,0,1,0-.27v0h0v-.13a8.44,8.44,0,1,1,8.44,8.44Z"/></g></g></svg>